<mxfile host="app.diagrams.net" modified="2023-01-02T14:25:11.242Z" agent="5.0 (Windows NT 10.0; Win64; x64) AppleWebKit/537.36 (KHTML, like Gecko) Chrome/108.0.0.0 Safari/537.36" etag="00tnhYHc-0Gm5hQizoOn" version="20.7.4" type="github">
  <diagram id="C5RBs43oDa-KdzZeNtuy" name="Page-1">
    <mxGraphModel dx="1195" dy="657" grid="1" gridSize="10" guides="1" tooltips="1" connect="1" arrows="1" fold="1" page="1" pageScale="1" pageWidth="827" pageHeight="1169" math="0" shadow="0">
      <root>
        <mxCell id="WIyWlLk6GJQsqaUBKTNV-0" />
        <mxCell id="WIyWlLk6GJQsqaUBKTNV-1" parent="WIyWlLk6GJQsqaUBKTNV-0" />
        <mxCell id="WIyWlLk6GJQsqaUBKTNV-4" value="" style="rounded=0;html=1;jettySize=auto;orthogonalLoop=1;fontSize=11;endArrow=block;endFill=0;endSize=8;strokeWidth=1;shadow=0;labelBackgroundColor=none;edgeStyle=orthogonalEdgeStyle;entryX=0.5;entryY=0;entryDx=0;entryDy=0;" parent="WIyWlLk6GJQsqaUBKTNV-1" source="WIyWlLk6GJQsqaUBKTNV-6" target="KxSlp-UEgUUWR3o7a6AF-6" edge="1">
          <mxGeometry x="-0.4444" y="20" relative="1" as="geometry">
            <mxPoint as="offset" />
            <mxPoint x="210" y="160" as="targetPoint" />
            <Array as="points">
              <mxPoint x="210" y="70" />
            </Array>
          </mxGeometry>
        </mxCell>
        <mxCell id="KxSlp-UEgUUWR3o7a6AF-4" value="M500 (Vorgange)" style="edgeLabel;html=1;align=center;verticalAlign=middle;resizable=0;points=[];" vertex="1" connectable="0" parent="WIyWlLk6GJQsqaUBKTNV-4">
          <mxGeometry x="-0.1765" y="1" relative="1" as="geometry">
            <mxPoint x="4" y="-1" as="offset" />
          </mxGeometry>
        </mxCell>
        <mxCell id="KxSlp-UEgUUWR3o7a6AF-3" style="edgeStyle=orthogonalEdgeStyle;rounded=0;orthogonalLoop=1;jettySize=auto;html=1;exitX=1;exitY=0.5;exitDx=0;exitDy=0;entryX=0.5;entryY=0;entryDx=0;entryDy=0;" edge="1" parent="WIyWlLk6GJQsqaUBKTNV-1" source="WIyWlLk6GJQsqaUBKTNV-6" target="KxSlp-UEgUUWR3o7a6AF-32">
          <mxGeometry relative="1" as="geometry">
            <mxPoint x="550" y="160" as="targetPoint" />
          </mxGeometry>
        </mxCell>
        <mxCell id="KxSlp-UEgUUWR3o7a6AF-5" value="M600 (Aufgaben)" style="edgeLabel;html=1;align=center;verticalAlign=middle;resizable=0;points=[];" vertex="1" connectable="0" parent="KxSlp-UEgUUWR3o7a6AF-3">
          <mxGeometry x="-0.2105" y="-4" relative="1" as="geometry">
            <mxPoint as="offset" />
          </mxGeometry>
        </mxCell>
        <mxCell id="WIyWlLk6GJQsqaUBKTNV-6" value="Vom welcheMaske diese Maske geoffnet wurd?" style="rhombus;whiteSpace=wrap;html=1;shadow=0;fontFamily=Helvetica;fontSize=12;align=center;strokeWidth=1;spacing=6;spacingTop=-4;" parent="WIyWlLk6GJQsqaUBKTNV-1" vertex="1">
          <mxGeometry x="290" y="10" width="160" height="120" as="geometry" />
        </mxCell>
        <mxCell id="KxSlp-UEgUUWR3o7a6AF-9" style="edgeStyle=orthogonalEdgeStyle;rounded=0;orthogonalLoop=1;jettySize=auto;html=1;exitX=0;exitY=0.5;exitDx=0;exitDy=0;entryX=0.5;entryY=0;entryDx=0;entryDy=0;" edge="1" parent="WIyWlLk6GJQsqaUBKTNV-1" source="KxSlp-UEgUUWR3o7a6AF-6" target="KxSlp-UEgUUWR3o7a6AF-7">
          <mxGeometry relative="1" as="geometry" />
        </mxCell>
        <mxCell id="KxSlp-UEgUUWR3o7a6AF-11" value="ja" style="edgeLabel;html=1;align=center;verticalAlign=middle;resizable=0;points=[];" vertex="1" connectable="0" parent="KxSlp-UEgUUWR3o7a6AF-9">
          <mxGeometry x="-0.072" y="1" relative="1" as="geometry">
            <mxPoint as="offset" />
          </mxGeometry>
        </mxCell>
        <mxCell id="KxSlp-UEgUUWR3o7a6AF-10" style="edgeStyle=orthogonalEdgeStyle;rounded=0;orthogonalLoop=1;jettySize=auto;html=1;exitX=1;exitY=0.5;exitDx=0;exitDy=0;entryX=1;entryY=0.5;entryDx=0;entryDy=0;" edge="1" parent="WIyWlLk6GJQsqaUBKTNV-1" source="KxSlp-UEgUUWR3o7a6AF-6" target="KxSlp-UEgUUWR3o7a6AF-18">
          <mxGeometry relative="1" as="geometry">
            <mxPoint x="330" y="230" as="targetPoint" />
          </mxGeometry>
        </mxCell>
        <mxCell id="KxSlp-UEgUUWR3o7a6AF-12" value="Nein" style="edgeLabel;html=1;align=center;verticalAlign=middle;resizable=0;points=[];" vertex="1" connectable="0" parent="KxSlp-UEgUUWR3o7a6AF-10">
          <mxGeometry x="-0.2421" y="-3" relative="1" as="geometry">
            <mxPoint as="offset" />
          </mxGeometry>
        </mxCell>
        <mxCell id="KxSlp-UEgUUWR3o7a6AF-6" value="Ist veraltet?" style="rhombus;whiteSpace=wrap;html=1;shadow=0;fontFamily=Helvetica;fontSize=12;align=center;strokeWidth=1;spacing=6;spacingTop=-4;" vertex="1" parent="WIyWlLk6GJQsqaUBKTNV-1">
          <mxGeometry x="140" y="140" width="140" height="70" as="geometry" />
        </mxCell>
        <mxCell id="KxSlp-UEgUUWR3o7a6AF-14" style="edgeStyle=orthogonalEdgeStyle;rounded=0;orthogonalLoop=1;jettySize=auto;html=1;exitX=0.5;exitY=1;exitDx=0;exitDy=0;entryX=0.5;entryY=0;entryDx=0;entryDy=0;" edge="1" parent="WIyWlLk6GJQsqaUBKTNV-1" source="KxSlp-UEgUUWR3o7a6AF-7" target="KxSlp-UEgUUWR3o7a6AF-13">
          <mxGeometry relative="1" as="geometry" />
        </mxCell>
        <mxCell id="KxSlp-UEgUUWR3o7a6AF-7" value="&lt;span style=&quot;background-color: initial;&quot;&gt;erhalten der referenzierte aktuelle ETY_AsylKon-&lt;/span&gt;&lt;div&gt;Vorgang&lt;/div&gt;" style="rounded=1;whiteSpace=wrap;html=1;fontSize=12;glass=0;strokeWidth=1;shadow=0;" vertex="1" parent="WIyWlLk6GJQsqaUBKTNV-1">
          <mxGeometry x="30" y="230" width="120" height="90" as="geometry" />
        </mxCell>
        <mxCell id="KxSlp-UEgUUWR3o7a6AF-16" style="edgeStyle=orthogonalEdgeStyle;rounded=0;orthogonalLoop=1;jettySize=auto;html=1;exitX=0.5;exitY=1;exitDx=0;exitDy=0;" edge="1" parent="WIyWlLk6GJQsqaUBKTNV-1" source="KxSlp-UEgUUWR3o7a6AF-13" target="KxSlp-UEgUUWR3o7a6AF-15">
          <mxGeometry relative="1" as="geometry" />
        </mxCell>
        <mxCell id="KxSlp-UEgUUWR3o7a6AF-13" value="refresh die Maske mit dem aktuellen Vorgang" style="rounded=1;whiteSpace=wrap;html=1;fontSize=12;glass=0;strokeWidth=1;shadow=0;" vertex="1" parent="WIyWlLk6GJQsqaUBKTNV-1">
          <mxGeometry x="30" y="370" width="120" height="90" as="geometry" />
        </mxCell>
        <mxCell id="KxSlp-UEgUUWR3o7a6AF-19" value="" style="edgeStyle=orthogonalEdgeStyle;rounded=0;orthogonalLoop=1;jettySize=auto;html=1;" edge="1" parent="WIyWlLk6GJQsqaUBKTNV-1" source="KxSlp-UEgUUWR3o7a6AF-15" target="KxSlp-UEgUUWR3o7a6AF-18">
          <mxGeometry relative="1" as="geometry">
            <Array as="points">
              <mxPoint x="90" y="755" />
            </Array>
          </mxGeometry>
        </mxCell>
        <mxCell id="KxSlp-UEgUUWR3o7a6AF-15" value="Hinweis angezeigt" style="rounded=1;whiteSpace=wrap;html=1;fontSize=12;glass=0;strokeWidth=1;shadow=0;" vertex="1" parent="WIyWlLk6GJQsqaUBKTNV-1">
          <mxGeometry x="30" y="510" width="120" height="90" as="geometry" />
        </mxCell>
        <mxCell id="KxSlp-UEgUUWR3o7a6AF-18" value="&lt;div&gt;die aktuelle ETY_AsylKon-Vorgang_Historie des betreffenden&lt;/div&gt;&lt;div&gt;ETY_AsylKon-Vorgangs ermittelt&lt;/div&gt;" style="rounded=1;whiteSpace=wrap;html=1;fontSize=12;glass=0;strokeWidth=1;shadow=0;" vertex="1" parent="WIyWlLk6GJQsqaUBKTNV-1">
          <mxGeometry x="180" y="710" width="120" height="90" as="geometry" />
        </mxCell>
        <mxCell id="KxSlp-UEgUUWR3o7a6AF-20" style="edgeStyle=orthogonalEdgeStyle;rounded=0;orthogonalLoop=1;jettySize=auto;html=1;exitX=0;exitY=0.5;exitDx=0;exitDy=0;entryX=0.5;entryY=0;entryDx=0;entryDy=0;" edge="1" parent="WIyWlLk6GJQsqaUBKTNV-1" source="KxSlp-UEgUUWR3o7a6AF-24" target="KxSlp-UEgUUWR3o7a6AF-30">
          <mxGeometry relative="1" as="geometry">
            <mxPoint x="430" y="350" as="targetPoint" />
          </mxGeometry>
        </mxCell>
        <mxCell id="KxSlp-UEgUUWR3o7a6AF-21" value="ja" style="edgeLabel;html=1;align=center;verticalAlign=middle;resizable=0;points=[];" vertex="1" connectable="0" parent="KxSlp-UEgUUWR3o7a6AF-20">
          <mxGeometry x="-0.072" y="1" relative="1" as="geometry">
            <mxPoint as="offset" />
          </mxGeometry>
        </mxCell>
        <mxCell id="KxSlp-UEgUUWR3o7a6AF-24" value="Ist veraltet?" style="rhombus;whiteSpace=wrap;html=1;shadow=0;fontFamily=Helvetica;fontSize=12;align=center;strokeWidth=1;spacing=6;spacingTop=-4;" vertex="1" parent="WIyWlLk6GJQsqaUBKTNV-1">
          <mxGeometry x="520" y="250" width="140" height="70" as="geometry" />
        </mxCell>
        <mxCell id="KxSlp-UEgUUWR3o7a6AF-35" style="edgeStyle=orthogonalEdgeStyle;rounded=0;orthogonalLoop=1;jettySize=auto;html=1;exitX=0.5;exitY=1;exitDx=0;exitDy=0;" edge="1" parent="WIyWlLk6GJQsqaUBKTNV-1" source="KxSlp-UEgUUWR3o7a6AF-30" target="KxSlp-UEgUUWR3o7a6AF-34">
          <mxGeometry relative="1" as="geometry" />
        </mxCell>
        <mxCell id="KxSlp-UEgUUWR3o7a6AF-30" value="Hinweis angezeigt" style="rounded=1;whiteSpace=wrap;html=1;fontSize=12;glass=0;strokeWidth=1;shadow=0;" vertex="1" parent="WIyWlLk6GJQsqaUBKTNV-1">
          <mxGeometry x="370" y="320" width="120" height="90" as="geometry" />
        </mxCell>
        <mxCell id="KxSlp-UEgUUWR3o7a6AF-33" style="edgeStyle=orthogonalEdgeStyle;rounded=0;orthogonalLoop=1;jettySize=auto;html=1;exitX=0.5;exitY=1;exitDx=0;exitDy=0;entryX=0.5;entryY=0;entryDx=0;entryDy=0;" edge="1" parent="WIyWlLk6GJQsqaUBKTNV-1" source="KxSlp-UEgUUWR3o7a6AF-32" target="KxSlp-UEgUUWR3o7a6AF-24">
          <mxGeometry relative="1" as="geometry" />
        </mxCell>
        <mxCell id="KxSlp-UEgUUWR3o7a6AF-32" value="&lt;div&gt;die aktuelle ETY_AsylKon-Vorgang_Historie des betreffenden&lt;/div&gt;&lt;div&gt;ETY_AsylKon-Vorgangs ermittelt&lt;/div&gt;" style="rounded=1;whiteSpace=wrap;html=1;fontSize=12;glass=0;strokeWidth=1;shadow=0;" vertex="1" parent="WIyWlLk6GJQsqaUBKTNV-1">
          <mxGeometry x="530" y="120" width="120" height="90" as="geometry" />
        </mxCell>
        <mxCell id="KxSlp-UEgUUWR3o7a6AF-62" style="edgeStyle=orthogonalEdgeStyle;rounded=0;orthogonalLoop=1;jettySize=auto;html=1;entryX=1;entryY=0.5;entryDx=0;entryDy=0;" edge="1" parent="WIyWlLk6GJQsqaUBKTNV-1" source="KxSlp-UEgUUWR3o7a6AF-34" target="KxSlp-UEgUUWR3o7a6AF-18">
          <mxGeometry relative="1" as="geometry">
            <Array as="points">
              <mxPoint x="420" y="755" />
            </Array>
          </mxGeometry>
        </mxCell>
        <mxCell id="KxSlp-UEgUUWR3o7a6AF-34" value="&lt;div&gt;&lt;/div&gt;die Buttons deaktiviert&lt;span style=&quot;background-color: initial;&quot;&gt;:&lt;/span&gt;&lt;br&gt;&lt;div&gt;&lt;ul&gt;&lt;li&gt;&amp;nbsp;„Notiz erstellen“,&lt;/li&gt;&lt;li&gt;„Zwischennachricht an BVA“&lt;/li&gt;&lt;li&gt;„Erneute Konsultation an BVA“ deaktiviert&lt;/li&gt;&lt;/ul&gt;&lt;/div&gt;" style="rounded=1;whiteSpace=wrap;html=1;fontSize=12;glass=0;strokeWidth=1;shadow=0;align=left;" vertex="1" parent="WIyWlLk6GJQsqaUBKTNV-1">
          <mxGeometry x="352.5" y="460" width="155" height="130" as="geometry" />
        </mxCell>
      </root>
    </mxGraphModel>
  </diagram>
</mxfile>
